<?xml version="1.0" standalone="no"?>
<!-- PAINTING -->
<!-- <svg width="160" height="140" xmlns="http://www.w3.org/2000/svg" version="1.1">
  <rect
    x="10"
    y="10"
    width="100"
    height="100"
    stroke="blue"
    fill="purple"
    fill-opacity="0.5"
    stroke-opacity="0.8"
    stroke-width="15" />
</svg> -->

<!-- STROKES -->
<!-- <svg width="160" height="140" xmlns="http://www.w3.org/2000/svg" version="1.1">
  <line x1="40" y1="20" x2="120" y2="20" stroke="black" stroke-width="20" stroke-linecap="butt"/>
  <line x1="40" y1="60" x2="120" y2="60" stroke="black" stroke-width="20" stroke-linecap="square"/>
  <line x1="40" y1="100" x2="120" y2="100" stroke="black" stroke-width="20" stroke-linecap="round"/>
</svg> -->

<!-- <svg width="160" height="280" xmlns="http://www.w3.org/2000/svg" version="1.1">
  <polyline points="40 60 80 20 120 60" stroke="black" stroke-width="20"
      stroke-linecap="butt" fill="none" stroke-linejoin="miter"/>

  <polyline points="40 140 80 100 120 140" stroke="black" stroke-width="20"
      stroke-linecap="round" fill="none" stroke-linejoin="round"/>

  <polyline points="40 220 80 180 120 220" stroke="black" stroke-width="20"
      stroke-linecap="square" fill="none" stroke-linejoin="bevel"/>
</svg> -->


<!-- <svg width="200" height="150" xmlns="http://www.w3.org/2000/svg" version="1.1">
  <path d="M 10 75 Q 50 10 100 75 T 190 75" stroke="black"
    stroke-linecap="round" stroke-dasharray="5,10,5" fill="none"/>
  <path d="M 10 75 L 190 75" stroke="red"
    stroke-linecap="round" stroke-width="1" stroke-dasharray="5,5" fill="none"/>
</svg> -->

<!-- PAINT ORDER -->
<!-- <svg width="400" height="180" xmlns="http://www.w3.org/2000/svg" version="1.1">
  <polyline
    points="40 80 80 40 120 80"
    stroke-width="15"
    stroke="black"
    fill="coral"
    paint-order="fill" />

  <polyline
    points="40 140 80 100 120 140"
    stroke-width="15"
    stroke="black"
    fill="coral"
    paint-order="stroke" />
</svg> -->

<!-- USE CSS -->
<!-- <svg width="400" height="180" xmlns="http://www.w3.org/2000/svg" version="1.1">
 <rect x="10" height="180" y="10" width="180" style="stroke: black; fill: red;"/>
</svg> -->

<svg width="200" height="200" xmlns="http://www.w3.org/2000/svg" version="1.1">
  <defs>
    <style><![CDATA[
       #MyRect {
         stroke: black;
         fill: red;
         paint-order: fill;
       }
       #MyRect:hover {
        stroke: black;
        fill: blue;
      }
    ]]></style>
  </defs>
  <rect x="10" height="180" y="10" width="180" id="MyRect"/>
</svg>