<svg width="200" height="200" style="background-color:#c4c4c4" xmlns="http://www.w3.org/2000/svg"><g transform="translate(5 35)" stroke="#000" stroke-linejoin="round" stroke-linecap="round" fill="transparent"><path d="M30 50c5-8 10-15 35-25v45c-5 0-15 0-35-20M36 55c5-3 10 3 15 0"/><ellipse cx="50" cy="38" rx="7" ry="9" fill="#C4C4C4"/><path fill="#000" d="M47.8 36.8h4.3v4.3h-4.3z"/><path d="M45 39q5-6 10 0-5 6-10 0" stroke-width=".8"/><path d="M65 28c20-4 40-6 60-2 30 9 35 34 35 54-5 40-55 35-55 10 5-22 27-22 31-5 2 20-21 20-24 5 3-15 16-15 18-4 0 10-12 14-12 2 2-6 6-6 7 0" stroke-linejoin="bevel"/><path d="M65 68l57-2c23 7 16 24 12 30"/><path d="M85 50l5 12-8 23-3-5-6 4 5-20-3-9a5 5 90 0110-5" fill="#C4C4C4"/><path d="M106.2 56l3.6 8.64-5.76 16.56-2.16-3.6-4.32 2.88 3.6-14.4L99 59.6a4.025 4.025 0 017.2-3.6" stroke-width="1.008" fill="#C4C4C4"/><path d="M65 28l5-8 5 6 5-8 5 7 5-8 5 7 5-7 5 7 5-8 5 8 5-7 5 9 7-7 3 11 9-5 1 12h10l-3 9 10 4-5 6 7 4-5 6 5 5-4 4 3 4-3 3"/></g></svg>