<?xml version="1.0" standalone="no"?>

<svg width="200" height="200" style="background-color: #c4c4c4" xmlns="http://www.w3.org/2000/svg">
      <defs>
            <linearGradient id="casco"  x1="0" x2="0" y1="1" y2="0">
                  <stop offset="0%" stop-color="blue" />
                  <stop offset="50%" stop-color="lightblue" />
                  <stop offset="100%" stop-color="green" />
            </linearGradient>
      </defs>

      <!-- Corpo -->
      <!-- ESSA POLYLINE FAZ O CORPO TAMBEM, MAS FICOU COM AS QUINAS QUADRADAS. -->
      <!-- <polyline points="118 115 135 100 145 100 150 110 120 140 50 140 40 135 50 128" stroke="black" stroke-width="1.5" stroke-linecap="round" fill="transparent" /> -->
      <path d="M118 115 Q140 90 150 110 Q150 120 120 140 L50 140 Q25 134 50 128" stroke="black" stroke-width="2" fill="red" />

      <!-- TODOS ESSES DE BAIXO ESTÃO DENTRO DO PATH ACIMA.  -->
      <!-- <path d="M150 110 Q150 120 120 140" stroke="black" stroke-width="2" fill="transparent" /> -->
      <!-- <line x1="120" x2="50" y1="140" y2="140" stroke="black" stroke-width="2" stroke-linecap="round" /> -->
      <!-- <path d="M50 140 Q25 134 50 128" stroke="black" stroke-width="2" fill="transparent" /> -->

      <!-- Casco -->
      <g fill="url(#casco)"  stroke="black" stroke-width="2">
            <circle cx="80" cy="100" r="40" stroke="black" stroke-width="2" />
            <!-- Esses três paths podem ser juntados usando apenas um path, como feito abaixo.
            Usando apenas um path, a junção das linhas ficam melhores e o preenchimento fica homogênio-->
            <!-- <path d="M72 140 C110 130 110 85 80 85" />
            <path d="M80 85 C60 85 50 110 75 122"  />
            <path d="M75 122 C95 125 95 90 75 105" stroke-linecap="round" /> -->

             <path d="M72 140 C110 130 110 85 80 85 C60 85 50 110 75 122 C95 125 95 90 75 105" />
            
      </g>

      <!-- Boca -->
      <path d="M130 110 A25 10 120 0 0 142 115" stroke="black" stroke-width="1" fill="transparent" />

      <!-- Olhos -->
      <line x1="135" x2="135" y1="102" y2="87" stroke="black" stroke-width="1" />
      <circle cx="136" cy="82" r="5" stroke="black" stroke-width="1" fill="white" />
      <circle cx="136" cy="82" r="2.5" fill="black" />
      <polygon points="136 82 133 83 133 81" fill="white" />

      <line x1="145" x2="150" y1="102" y2="90" stroke="black" stroke-width="1" />
      <circle cx="153" cy="86" r="5" stroke="black" stroke-width="1" fill="white" />
      <circle cx="153" cy="86" r="2.5" fill="black" />
      <polygon points="153 86 150 87 150 85" fill="white" />
</svg>
